<svg xmlns="http://www.w3.org/2000/svg" viewBox="0 0 192 192">
  <rect width="192" height="192" rx="24" fill="#000022"/>
  <!-- TV body -->
  <rect x="28" y="36" width="136" height="100" rx="8" fill="#000044" stroke="#0000aa" stroke-width="3"/>
  <!-- Screen -->
  <rect x="36" y="44" width="120" height="76" rx="4" fill="#000033"/>
  <!-- Scan lines -->
  <line x1="36" y1="56" x2="156" y2="56" stroke="#0000aa" stroke-width="0.5" opacity="0.3"/>
  <line x1="36" y1="68" x2="156" y2="68" stroke="#0000aa" stroke-width="0.5" opacity="0.3"/>
  <line x1="36" y1="80" x2="156" y2="80" stroke="#0000aa" stroke-width="0.5" opacity="0.3"/>
  <line x1="36" y1="92" x2="156" y2="92" stroke="#0000aa" stroke-width="0.5" opacity="0.3"/>
  <line x1="36" y1="104" x2="156" y2="104" stroke="#0000aa" stroke-width="0.5" opacity="0.3"/>
  <!-- Guide rows on screen -->
  <rect x="42" y="50" width="24" height="10" rx="1" fill="#ffff00" opacity="0.7"/>
  <rect x="70" y="50" width="40" height="10" rx="1" fill="#00ffff" opacity="0.4"/>
  <rect x="114" y="50" width="36" height="10" rx="1" fill="#00ffff" opacity="0.3"/>
  <rect x="42" y="64" width="24" height="10" rx="1" fill="#ffff00" opacity="0.7"/>
  <rect x="70" y="64" width="60" height="10" rx="1" fill="#00ffff" opacity="0.4"/>
  <rect x="134" y="64" width="16" height="10" rx="1" fill="#00ffff" opacity="0.3"/>
  <rect x="42" y="78" width="24" height="10" rx="1" fill="#ffff00" opacity="0.7"/>
  <rect x="70" y="78" width="30" height="10" rx="1" fill="#00ffff" opacity="0.5"/>
  <rect x="104" y="78" width="46" height="10" rx="1" fill="#00ffff" opacity="0.3"/>
  <rect x="42" y="92" width="24" height="10" rx="1" fill="#ffff00" opacity="0.7"/>
  <rect x="70" y="92" width="50" height="10" rx="1" fill="#00ffff" opacity="0.4"/>
  <rect x="124" y="92" width="26" height="10" rx="1" fill="#00ffff" opacity="0.3"/>
  <!-- TV stand -->
  <rect x="72" y="140" width="48" height="6" rx="3" fill="#0000aa"/>
  <rect x="60" y="148" width="72" height="4" rx="2" fill="#000066"/>
</svg>
